<?xml version="1.0" encoding="iso-8859-1"?>
<!-- Generator: Adobe Illustrator 17.1.0, SVG Export Plug-In . SVG Version: 6.00 Build 0)  -->
<!DOCTYPE svg PUBLIC "-//W3C//DTD SVG 1.1//EN" "http://www.w3.org/Graphics/SVG/1.1/DTD/svg11.dtd">
<svg version="1.1" id="Layer_1" xmlns="http://www.w3.org/2000/svg" xmlns:xlink="http://www.w3.org/1999/xlink" x="0px" y="0px"
	 viewBox="0 0 135.667 30" style="enable-background:new 0 0 135.667 30;" xml:space="preserve">
<g>
	<path style="fill:#FFFFFF;" d="M7.947,8.667V5.656c0-1.76-0.469-3.128-2.463-3.128c-2.072,0-2.503,1.33-2.503,3.128v2.268
		c0,6.843,6.843,3.832,6.843,12.943v3.324c0,2.815-0.782,4.81-4.34,4.81c-3.597,0-4.379-1.994-4.379-4.81v-3.402h1.877v3.402
		c0,1.76,0.508,3.128,2.503,3.128c2.033,0,2.463-1.29,2.463-3.128v-3.324c0-8.211-6.843-5.005-6.843-12.943V5.656
		c0-2.815,0.782-4.81,4.379-4.81c3.558,0,4.34,1.994,4.34,4.81v3.011H7.947z"/>
	<path style="fill:#FFFFFF;" d="M24.056,1.238v22.914c0,2.815-0.899,4.849-4.379,4.849c-3.597,0-4.379-2.033-4.379-4.849V1.238
		h1.877v22.914c0,1.838,0.43,3.167,2.503,3.167c2.072,0,2.502-1.329,2.502-3.167V1.238H24.056z"/>
	<path style="fill:#FFFFFF;" d="M31.954,20.241v8.368h-1.838V1.238h1.994l6.334,23.031c-0.078-4.77-0.234-9.854-0.234-14.624V1.238
		h1.838v27.371h-1.994L31.72,5.617C31.798,10.348,31.954,15.393,31.954,20.241z"/>
	<path style="fill:#FFFFFF;" d="M52.443,8.667V5.656c0-1.76-0.469-3.128-2.463-3.128c-2.072,0-2.503,1.33-2.503,3.128v2.268
		c0,6.843,6.843,3.832,6.843,12.943v3.324c0,2.815-0.782,4.81-4.34,4.81c-3.597,0-4.379-1.994-4.379-4.81v-3.402h1.877v3.402
		c0,1.76,0.508,3.128,2.503,3.128c2.033,0,2.463-1.29,2.463-3.128v-3.324c0-8.211-6.843-5.005-6.843-12.943V5.656
		c0-2.815,0.782-4.81,4.379-4.81c3.558,0,4.34,1.994,4.34,4.81v3.011H52.443z"/>
	<path style="fill:#FFFFFF;" d="M59.989,1.238h3.949c3.754,0,4.692,1.916,4.692,4.731v6.061c0,2.737-1.173,4.653-4.77,4.653h-1.994
		v11.926h-1.877V1.238z M61.866,14.962h1.955c2.307,0,2.933-1.134,2.933-2.933V5.969c0-1.799-0.587-2.933-2.894-2.933h-1.994V14.962
		z"/>
	<path style="fill:#FFFFFF;" d="M82.354,5.617V24.23c0,2.815-0.978,4.77-4.418,4.77c-3.441,0-4.419-1.955-4.419-4.77V5.617
		c0-2.815,0.978-4.77,4.419-4.77C81.377,0.847,82.354,2.802,82.354,5.617z M80.477,24.23V5.617c0-1.799-0.547-3.089-2.542-3.089
		c-1.994,0-2.542,1.29-2.542,3.089V24.23c0,1.799,0.547,3.089,2.542,3.089C79.93,27.319,80.477,26.028,80.477,24.23z"/>
	<path style="fill:#FFFFFF;" d="M91.895,28.609h-1.877V3.036h-3.363V1.238h8.602v1.799h-3.363V28.609z"/>
	<path style="fill:#FFFFFF;" d="M103.624,28.609h-1.877V3.036h-3.363V1.238h8.602v1.799h-3.363V28.609z"/>
	<path style="fill:#FFFFFF;" d="M113.555,26.81h5.631v1.799h-7.508V1.238h7.508v1.799h-5.631v10.91h4.849v1.72h-4.849V26.81z"/>
	<path style="fill:#FFFFFF;" d="M124.542,1.238h3.989c3.754,0,4.653,1.916,4.653,4.731v6.061c0,2.346-0.978,4.145-3.363,4.575
		l4.575,12.004h-2.072c-1.408-3.949-2.894-7.938-4.301-11.926h-1.603v11.926h-1.877V1.238z M126.419,14.962h1.955
		c2.307,0,2.933-1.134,2.933-2.933V5.969c0-1.799-0.587-2.933-2.894-2.933h-1.994V14.962z"/>
</g>
</svg>
